<svg xmlns="http://www.w3.org/2000/svg" viewBox="0 0 31 31" xml:space="preserve" width="31" height="31"><path style="fill:#c6d0f5" d="m5.267 15.08 6.46-6.458-.594-.595-7.473 7.474 7.473 7.473.594-.594-6.46-6.46h21.249v-.84z"/><path style="fill:#c6d0f5" d="M15.5 0C6.954 0 .001 6.953.001 15.501.001 24.046 6.954 31 15.5 31s15.499-6.954 15.499-15.499C30.999 6.953 24.047 0 15.5 0m0 30.267C7.358 30.267.733 23.643.733 15.501.733 7.357 7.358.732 15.5.732S30.267 7.357 30.267 15.5c0 8.142-6.625 14.767-14.767 14.767"/></svg>