<svg width="487.315" height="487.315" viewBox="0 0 128.935 128.935" xml:space="preserve" xmlns="http://www.w3.org/2000/svg">
  <g transform="translate(-11.362 -27.985)scale(.26458)">
    <circle style="fill:#303446;fill-opacity:1;stroke:none;stroke-width:45.8445;stroke-dasharray:none;stroke-opacity:1" cx="286.602" cy="349.428" r="243.657"/>
    <g style="stroke-width:1.00157;stroke-dasharray:none">
      <g style="stroke-width:1.00157;stroke-dasharray:none">
        <g style="fill:#dce0e8;fill-opacity:1;stroke-width:1.06568;stroke-dasharray:none">
          <path d="M492.936 125.196a27.917 27.917 0 0 0-14.902 41.792 45.17 45.17 0 0 1-20.29 66.204 38.65 38.65 0 0 0-10.816 64.313 68.375 68.375 0 0 1-17.068-93.914 16 16 0 0 1-1.109-1.047 69.88 69.88 0 0 0 16.755 95.793 90.342 90.342 0 0 1 47.43-173.141" fill="#fff" style="fill:#c6d0f5;fill-opacity:1;stroke-width:1.06568;stroke-dasharray:none" transform="rotate(72 329.49 207.672)scale(.93984)"/>
        </g>
        <g style="fill:#dce0e8;fill-opacity:1;stroke-width:1.06568;stroke-dasharray:none">
          <path d="M492.936 125.196a27.917 27.917 0 0 0-14.902 41.792 45.17 45.17 0 0 1-20.29 66.204 38.65 38.65 0 0 0-10.816 64.313 68.375 68.375 0 0 1-17.068-93.914 16 16 0 0 1-1.109-1.047 69.88 69.88 0 0 0 16.755 95.793 90.342 90.342 0 0 1 47.43-173.141" fill="#fff" style="fill:#c6d0f5;fill-opacity:1;stroke-width:1.06568;stroke-dasharray:none" transform="rotate(132 345.138 272.162)scale(.93984)"/>
        </g>
      </g>
      <g style="stroke-width:1.00157;stroke-dasharray:none">
        <g style="fill:#dce0e8;fill-opacity:1;stroke-width:1.06568;stroke-dasharray:none">
          <path d="M492.936 125.196a27.917 27.917 0 0 0-14.902 41.792 45.17 45.17 0 0 1-20.29 66.204 38.65 38.65 0 0 0-10.816 64.313 68.375 68.375 0 0 1-17.068-93.914 16 16 0 0 1-1.109-1.047 69.88 69.88 0 0 0 16.755 95.793 90.342 90.342 0 0 1 47.43-173.141" fill="#fff" style="fill:#c6d0f5;fill-opacity:1;stroke-width:1.06568;stroke-dasharray:none" transform="scale(-.93984 .93984)rotate(72 45.805 -198.883)"/>
        </g>
        <g style="fill:#dce0e8;fill-opacity:1;stroke-width:1.06568;stroke-dasharray:none">
          <path d="M492.936 125.196a27.917 27.917 0 0 0-14.902 41.792 45.17 45.17 0 0 1-20.29 66.204 38.65 38.65 0 0 0-10.816 64.313 68.375 68.375 0 0 1-17.068-93.914 16 16 0 0 1-1.109-1.047 69.88 69.88 0 0 0 16.755 95.793 90.342 90.342 0 0 1 47.43-173.141" fill="#fff" style="fill:#c6d0f5;fill-opacity:1;stroke-width:1.06568;stroke-dasharray:none" transform="scale(.93984 -.93984)rotate(-48 -345.187 140.015)"/>
        </g>
      </g>
    </g>
    <text xml:space="preserve" style="font-size:40px;fill:#303446;fill-opacity:1;stroke-width:1.00157;stroke-dasharray:none" x="286.485" y="552.922"><tspan x="286.485" y="552.922" style="font-style:normal;font-variant:normal;font-weight:400;font-stretch:normal;font-size:40px;font-family:Urbanist;-inkscape-font-specification:Urbanist;text-align:center;text-anchor:middle;fill:#b5bfe2;fill-opacity:1">website</tspan></text>
  </g>
</svg>
